# File created by Blade
# Date/Time:  Tue Sep 30 19:28:31 2014
#---------------------------------------------------------
:version 1.10
:name HOM
:units
  mass 1.0
  length 1.000000
  angle deg
:documentation
     Acclaim Skeleton File
:root
   axis xyz
   order TX TY TZ RX RY RZ
   position 0.000000 0.000000 0.000000
   orientation 0 0 0
:bonedata
   begin
      id 1
      name RightUpLeg_dum
      direction -1.000000 0.000000 0.000000
      length 3.766986
      axis 0.0 0.0 0.0 xyz
   end
   begin
      id 2
      name LeftUpLeg_dum
      direction 1.000000 0.000000 0.000000
      length 3.766986
      axis 0.0 0.0 0.0 xyz
   end
   begin
      id 3
      name Spine_dum
      direction 0.000000 1.000000 0.000000
      length 7.779697
      axis 0.0 0.0 0.0 xyz
   end
   begin
      id 4
      name RightUpLeg
      direction 0.000000 -1.000000 0.000000
      length 18.017682
      axis 0.0 0.0 0.0 xyz
      dof rx ry rz
   end
   begin
      id 5
      name RightLeg
      direction 0.000000 -1.000000 0.000000
      length 16.881075
      axis 0.0 0.0 0.0 xyz
      dof rx ry rz
   end
   begin
      id 6
      name RightFoot
      direction 0.000000 -0.258819 0.965926
      length 5.770812
      axis 15.0 0.0 0.0 xyz
      dof rx ry rz
   end
   begin
      id 7
      name RightToeBase
      direction 0.000000 0.000000 1.000000
      length 2.952750
      axis 0.0 0.0 0.0 xyz
      dof rx ry rz
   end
   begin
      id 8
      name LeftUpLeg
      direction 0.000000 -1.000000 0.000000
      length 18.017682
      axis 0.0 0.0 0.0 xyz
      dof rx ry rz
   end
   begin
      id 9
      name LeftLeg
      direction 0.000000 -1.000000 0.000000
      length 16.881075
      axis 0.0 0.0 0.0 xyz
      dof rx ry rz
   end
   begin
      id 10
      name LeftFoot
      direction 0.000000 -0.258819 0.965926
      length 5.770812
      axis 15.0 0.0 0.0 xyz
      dof rx ry rz
   end
   begin
      id 11
      name LeftToeBase
      direction 0.000000 0.000000 1.000000
      length 2.952750
      axis 0.0 0.0 0.0 xyz
      dof rx ry rz
   end
   begin
      id 12
      name Spine
      direction 0.000000 1.000000 0.000000
      length 0.000000
      axis 0.0 0.0 0.0 xyz
      dof rx ry rz
   end
   begin
      id 13
      name Spine_dum1
      direction 0.000000 1.000000 0.000000
      length 10.941760
      axis 0.0 0.0 0.0 xyz
   end
   begin
      id 14
      name Spine_dum2
      direction 0.000000 1.000000 0.000000
      length 10.941760
      axis 0.0 0.0 0.0 xyz
   end
   begin
      id 15
      name Spine_dum3
      direction 0.000000 1.000000 0.000000
      length 16.646042
      axis 0.0 0.0 0.0 xyz
   end
   begin
      id 16
      name RightShoulder
      direction -1.000000 0.000000 0.000000
      length 7.708937
      axis 0.0 0.0 90.0 xyz
      dof rx ry rz
   end
   begin
      id 17
      name RightArm
      direction -1.000000 0.000000 0.000000
      length 11.521345
      axis 0.0 0.0 90.0 xyz
      dof rx ry rz
   end
   begin
      id 18
      name RightForeArm
      direction -1.000000 0.000000 0.000000
      length 10.175898
      axis 0.0 0.0 90.0 xyz
      dof ry rz rx
   end
   begin
      id 19
      name RightHand
      direction -1.000000 0.000000 0.000000
      length 0.000000
      axis 0.0 0.0 90.0 xyz
      dof rx ry rz
   end
   begin
      id 20
      name RightHand_dum1
      direction -1.000000 0.000000 0.000000
      length 3.937000
      axis 0.0 0.0 90.0 xyz
   end
   begin
      id 21
      name RightHand_dum2
      direction 0.000000 0.000000 0.000000
      length 0.000000
      axis 0.0 0.0 90.0 xyz
   end
   begin
      id 22
      name RightHandThumb1
      direction 0.000000 0.000000 1.000000
      length 3.937000
      axis 0.0 0.0 90.0 xyz
      dof rx rz ry
   end
   begin
      id 23
      name LeftShoulder
      direction 1.000000 0.000000 0.000000
      length 7.708937
      axis 0.0 0.0 -90.0 xyz
      dof rx ry rz
   end
   begin
      id 24
      name LeftArm
      direction 1.000000 0.000000 0.000000
      length 11.521345
      axis 0.0 0.0 -90.0 xyz
      dof rx ry rz
   end
   begin
      id 25
      name LeftForeArm
      direction 1.000000 0.000000 0.000000
      length 10.175898
      axis 0.0 0.0 -90.0 xyz
      dof ry rz rx
   end
   begin
      id 26
      name LeftHand
      direction 1.000000 0.000000 0.000000
      length 0.000000
      axis 0.0 0.0 -90.0 xyz
      dof rx ry rz
   end
   begin
      id 27
      name LeftHand_dum1
      direction 1.000000 0.000000 0.000000
      length 3.937000
      axis 0.0 0.0 -90.0 xyz
   end
   begin
      id 28
      name LeftHand_dum2
      direction 0.000000 0.000000 0.000000
      length 0.000000
      axis 0.0 0.0 -90.0 xyz
   end
   begin
      id 29
      name LeftHandThumb1
      direction 0.000000 0.000000 1.000000
      length 3.937000
      axis 0.0 0.0 -90.0 xyz
      dof rx rz ry
   end
   begin
      id 30
      name Head
      direction 0.000000 1.000000 0.000000
      length 4.527550
      axis 0.0 0.0 0.0 xyz
      dof rx ry rz
   end
:hierarchy
   begin
      root RightUpLeg_dum LeftUpLeg_dum Spine_dum
      RightUpLeg_dum RightUpLeg
      LeftUpLeg_dum LeftUpLeg
      Spine_dum Spine
      RightUpLeg RightLeg
      RightLeg RightFoot
      RightFoot RightToeBase
      LeftUpLeg LeftLeg
      LeftLeg LeftFoot
      LeftFoot LeftToeBase
      Spine Spine_dum1 Spine_dum2 Spine_dum3
      Spine_dum1 RightShoulder
      Spine_dum2 LeftShoulder
      Spine_dum3 Head
      RightShoulder RightArm
      RightArm RightForeArm
      RightForeArm RightHand
      RightHand RightHand_dum1 RightHand_dum2
      RightHand_dum2 RightHandThumb1
      LeftShoulder LeftArm
      LeftArm LeftForeArm
      LeftForeArm LeftHand
      LeftHand LeftHand_dum1 LeftHand_dum2
      LeftHand_dum2 LeftHandThumb1
   end

# File created by Blade
# Date/Time:  Mon Sep 22 15:39:46 2014
# Frame Rate: 120.000 fps
#------------------------------------------------------
:FULLY-SPECIFIED
:DEGREES
140
root 2.264118 37.047403 1.786397 -4.864801 -1.573187 2.253578
RightUpLeg 12.096040 -6.121797 -4.507191
RightLeg -5.221651 -0.000000 0.000000
RightFoot -12.516647 -15.670125 15.630016
RightToeBase 15.784926 -0.000000 -0.000000
LeftUpLeg 9.855676 1.063382 1.095144
LeftLeg -2.018460 -0.000000 0.000000
LeftFoot -9.138768 13.342567 -16.955765
LeftToeBase 9.776118 -0.000000 -0.000000
Spine 3.665064 9.356609 -0.040086
RightShoulder 10.534028 -1.189663 -27.491353
RightArm 78.726251 25.462661 102.846997
RightForeArm 67.970933 -0.000000 105.286490
RightHand 16.827888 0.000000 4.816244
RightHandThumb1 -24.326973 -0.000000 -32.862282
LeftShoulder -11.898602 36.288419 -0.801195
LeftArm 50.938713 25.241849 -52.888330
LeftForeArm 31.045970 -0.000000 20.270069
LeftHand -13.570200 -0.000000 -11.681956
LeftHandThumb1 -26.253704 0.000000 33.147579
Head 4.292344 -4.080254 1.453318
141
root 2.269667 37.047636 1.788971 -4.856410 -1.629337 2.261465
RightUpLeg 12.082956 -6.118317 -4.524611
RightLeg -5.226921 -0.000000 0.000000
RightFoot -12.521694 -15.624300 15.658490
RightToeBase 15.816180 -0.000000 -0.000000
LeftUpLeg 9.855087 1.080370 1.077920
LeftLeg -2.015507 -0.000000 0.000000
LeftFoot -9.193164 13.380804 -17.054958
LeftToeBase 9.903005 -0.000000 -0.000000
Spine 3.633291 9.351448 -0.046340
RightShoulder 10.574602 -1.170489 -27.512739
RightArm 78.629031 25.496778 102.881541
RightForeArm 68.061550 0.000000 105.276182
RightHand 16.762076 -0.000000 4.847661
RightHandThumb1 -24.326973 -0.000000 -32.862282
LeftShoulder -11.927497 36.352091 -0.793334
LeftArm 50.811159 25.287770 -53.042923
LeftForeArm 31.043823 0.000000 20.056988
LeftHand -13.531769 0.000000 -11.818494
LeftHandThumb1 -26.253704 0.000000 33.147579
Head 4.296090 -4.056519 1.464121
142
root 2.275713 37.047830 1.792009 -4.847546 -1.695326 2.263349
RightUpLeg 12.064008 -6.104374 -4.535532
RightLeg -5.222586 -0.000000 0.000000
RightFoot -12.507685 -15.588849 15.637687
RightToeBase 15.804433 -0.000000 -0.000000
LeftUpLeg 9.860279 1.100660 1.066109
LeftLeg -2.014310 -0.000000 0.000000
LeftFoot -9.221364 13.409466 -17.078080
LeftToeBase 9.912468 -0.000000 -0.000000
Spine 3.594994 9.362133 -0.027026
RightShoulder 10.610092 -1.160799 -27.534770
RightArm 78.549161 25.522878 102.897418
RightForeArm 68.080205 -0.000000 105.239225
RightHand 16.836526 0.000000 4.821991
RightHandThumb1 -24.326973 -0.000000 -32.862282
LeftShoulder -11.909325 36.424893 -0.776334
LeftArm 50.647598 25.328193 -53.221672
LeftForeArm 31.111348 -0.000000 19.880315
LeftHand -13.555378 -0.000000 -11.799034
LeftHandThumb1 -26.253704 0.000000 33.147579
Head 4.304074 -3.911680 1.520226
143
root 2.279616 37.047954 1.795166 -4.843555 -1.749464 2.262773
RightUpLeg 12.058137 -6.077189 -4.538905
RightLeg -5.231304 -0.000000 0.000000
RightFoot -12.479453 -15.583980 15.606036
RightToeBase 15.757860 -0.000000 -0.000000
LeftUpLeg 9.869107 1.107572 1.060266
LeftLeg -2.015067 -0.000000 0.000000
LeftFoot -9.241751 13.442259 -17.087962
LeftToeBase 9.880186 -0.000000 -0.000000
Spine 3.575024 9.356926 -0.044053
RightShoulder 10.616070 -1.165886 -27.484433
RightArm 78.529905 25.538724 102.899350
RightForeArm 68.054403 0.000000 105.161044
RightHand 16.791213 -0.000000 4.985958
RightHandThumb1 -24.326973 -0.000000 -32.862282
LeftShoulder -11.889545 36.447767 -0.718226
LeftArm 50.420675 25.358738 -53.482246
LeftForeArm 31.210361 -0.000000 19.735524
LeftHand -13.527746 0.000000 -11.842686
LeftHandThumb1 -26.253704 0.000000 33.147579
Head 4.304543 -3.998136 1.513168
144
root 2.283813 37.048604 1.797293 -4.831528 -1.804309 2.258386
RightUpLeg 12.031926 -6.084345 -4.543373
RightLeg -5.216230 -0.000000 0.000000
RightFoot -12.465494 -15.531790 15.607412
RightToeBase 15.812430 -0.000000 -0.000000
LeftUpLeg 9.865186 1.120929 1.055219
LeftLeg -2.004429 -0.000000 0.000000
LeftFoot -9.235300 13.466648 -17.045779
LeftToeBase 9.802564 -0.000000 -0.000000
Spine 3.545813 9.352715 -0.038632
RightShoulder 10.594866 -1.106615 -27.444435
RightArm 78.434994 25.510155 102.852609
RightForeArm 67.960319 -0.000000 105.075086
RightHand 16.732263 -0.000000 5.122410
RightHandThumb1 -24.326973 -0.000000 -32.862282
LeftShoulder -11.918593 36.510184 -0.713721
LeftArm 50.289086 25.400600 -53.650391
LeftForeArm 31.262284 -0.000000 19.585091
LeftHand -13.540257 0.000000 -11.799113
LeftHandThumb1 -26.253704 0.000000 33.147579
Head 4.291621 -4.000187 1.528615
145
root 2.289138 37.048785 1.799575 -4.825608 -1.863958 2.253804
RightUpLeg 12.017883 -6.059695 -4.548105
RightLeg -5.215409 -0.000000 0.000000
RightFoot -12.443316 -15.494755 15.608217
RightToeBase 15.755180 -0.000000 -0.000000
LeftUpLeg 9.871790 1.138838 1.051690
LeftLeg -2.011353 -0.000000 0.000000
LeftFoot -9.292379 13.501831 -17.120494
LeftToeBase 9.928744 -0.000000 -0.000000
Spine 3.524280 9.365255 -0.026943
RightShoulder 10.596638 -1.196514 -27.445511
RightArm 78.502067 25.501063 102.869227
RightForeArm 67.872039 0.000000 105.024773
RightHand 16.685937 0.000000 5.154275
RightHandThumb1 -24.326973 -0.000000 -32.862282
LeftShoulder -11.929589 36.579649 -0.701394
LeftArm 50.149596 25.414419 -53.853285
LeftForeArm 31.287310 -0.000000 19.459804
LeftHand -13.474005 0.000000 -12.024393
LeftHandThumb1 -26.253704 0.000000 33.147579
Head 4.271540 -3.966974 1.558304
146
root 2.294612 37.049481 1.801957 -4.818573 -1.920849 2.249634
RightUpLeg 11.997614 -6.037133 -4.552409
RightLeg -5.202205 -0.000000 0.000000
RightFoot -12.444505 -15.464222 15.627146
RightToeBase 15.778236 -0.000000 -0.000000
LeftUpLeg 9.873817 1.160469 1.046123
LeftLeg -2.007537 -0.000000 0.000000
LeftFoot -9.295430 13.539161 -17.095645
LeftToeBase 9.862226 -0.000000 -0.000000
Spine 3.502845 9.366024 -0.013651
RightShoulder 10.579088 -1.173505 -27.421064
RightArm 78.436376 25.488465 102.788071
RightForeArm 67.750739 -0.000000 104.963433
RightHand 16.744837 -0.000000 5.196565
RightHandThumb1 -24.326973 -0.000000 -32.862282
LeftShoulder -11.950035 36.648649 -0.704655
LeftArm 50.019830 25.437334 -54.040010
LeftForeArm 31.262407 0.000000 19.337425
LeftHand -13.518449 -0.000000 -11.948000
LeftHandThumb1 -26.253704 0.000000 33.147579
Head 4.252451 -3.939073 1.579010
147
root 2.300056 37.049610 1.803887 -4.804467 -1.982240 2.242597
RightUpLeg 11.973301 -5.993514 -4.547568
RightLeg -5.201776 -0.000000 0.000000
RightFoot -12.439199 -15.468239 15.627517
RightToeBase 15.803809 -0.000000 -0.000000
LeftUpLeg 9.869377 1.201133 1.046618
LeftLeg -2.004879 -0.000000 0.000000
LeftFoot -9.327762 13.542437 -17.136962
LeftToeBase 9.923348 -0.000000 -0.000000
Spine 3.480030 9.469674 0.000820
RightShoulder 10.468821 -1.219473 -27.399478
RightArm 78.394626 25.487397 102.705180
RightForeArm 67.719629 -0.000000 104.910304
RightHand 16.754311 -0.000000 5.113027
RightHandThumb1 -24.326973 -0.000000 -32.862282
LeftShoulder -11.877112 36.716369 -0.638242
LeftArm 49.902533 25.462337 -54.215546
LeftForeArm 31.256634 -0.000000 19.253256
LeftHand -13.442891 -0.000000 -12.049049
LeftHandThumb1 -26.253704 0.000000 33.147579
Head 4.198873 -3.984377 1.638472
148
root 2.304380 37.050578 1.803474 -4.781756 -2.027114 2.224966
RightUpLeg 11.937111 -5.968418 -4.533129
RightLeg -5.191006 -0.000000 0.000000
RightFoot -12.405099 -15.439100 15.635474
RightToeBase 15.784906 -0.000000 -0.000000
LeftUpLeg 9.846075 1.220065 1.056247
LeftLeg -1.989349 -0.000000 0.000000
LeftFoot -9.346720 13.563535 -17.113736
LeftToeBase 9.880520 -0.000000 -0.000000
Spine 3.444711 9.472696 0.036969
RightShoulder 10.445032 -1.264570 -27.410149
RightArm 78.390064 25.470581 102.626531
RightForeArm 67.791879 -0.000000 104.850025
RightHand 16.783203 -0.000000 4.980280
RightHandThumb1 -24.326973 -0.000000 -32.862282
LeftShoulder -11.858336 36.779210 -0.638720
LeftArm 49.748122 25.469459 -54.401733
LeftForeArm 31.231489 -0.000000 19.194016
LeftHand -13.489680 -0.000000 -11.993088
LeftHandThumb1 -26.253704 0.000000 33.147579
Head 4.160763 -3.842252 1.698770
